<svg xmlns="http://www.w3.org/2000/svg" viewBox="0 0 410 404"><defs><linearGradient id="a" x1="0" y1="0" x2="1" y2="1"><stop offset="0" stop-color="#41d1ff"/><stop offset="1" stop-color="#bd34fe"/></linearGradient><linearGradient id="b" x1="0" y1="0" x2="1" y2="1"><stop offset="0" stop-color="#ffd1ff"/><stop offset="1" stop-color="#f9f"/></linearGradient></defs><path d="M399.641 59.525L215.7 387.772c-3.829 6.704-13.454 6.715-17.296.02L9.573 59.55c-4.048-7.124 2.248-15.852 10.343-14.508l184.843 31.59a10 10 0 0 0 3.408-.001l181.12-31.56c8.08-1.408 14.4 7.17 10.45 14.309z" fill="url(#a)"/><path d="M292.48 1.673L150.87 28.875a5 5 0 0 0-3.94 4.4l-8.5 98.925a5 5 0 0 0 5.97 5.348l45.31-8.225c3.236-.587 6.16 1.996 5.488 5.196l-13.5 64.732c-.724 3.476 2.777 6.365 6.07 4.988l27.877-11.63a5 5 0 0 1 6.727 5.905l-21.5 78.698c-.998 3.648 2.95 6.733 6.28 4.94l17.19-9.26a5 5 0 0 1 6.845 4.55l-.403 19.487c-.076 3.68 4.532 5.577 6.932 2.781l6.573-7.64c2.19-2.546 6.198-1.587 6.95 1.674l4.995 21.582c.89 3.85 6.245 4.32 8.005.68l105.622-220.26c2.2-4.585-.97-9.897-5.97-10.707l-58.52-9.31a5 5 0 0 1-4.01-3.46l-16.512-57.06c-1.067-3.684-4.887-5.878-8.644-5.16z" fill="url(#b)"/></svg>
